<svg width="1200" height="600" viewBox="0 0 1200 600" xmlns="http://www.w3.org/2000/svg">
    <defs>
        <linearGradient id="bodyGradient" x1="0%" y1="0%" x2="0%" y2="100%">
            <stop offset="0%" stop-color="#FFFFFF" stop-opacity="0.1"/>
            <stop offset="100%" stop-color="#FFFFFF" stop-opacity="0.02"/>
        </linearGradient>
        <linearGradient id="glassGradient" x1="0%" y1="0%" x2="0%" y2="100%">
            <stop offset="0%" stop-color="#22d3ee" stop-opacity="0.3"/>
            <stop offset="100%" stop-color="#0ea5e9" stop-opacity="0.1"/>
        </linearGradient>
    </defs>

    <rect width="100%" height="100%" fill="transparent"/>

    <g transform="translate(100, 150)">
        <path d="M 50,250 
                 L 150,250 
                 A 40,40 0 0 0 190,210 
                 L 250,210 
                 L 350,150 
                 L 750,150 
                 L 850,210 
                 L 910,210 
                 A 40,40 0 0 0 950,250 
                 L 1050,250 
                 L 1000,300 
                 L 100,300 
                 Z" 
              fill="url(#bodyGradient)" 
              stroke="#22d3ee" 
              stroke-width="2"/>

        <path d="M 360,152 
                 L 450,100 
                 L 650,100 
                 L 740,152 Z" 
              fill="url(#glassGradient)" 
              stroke="#a5f3fc" 
              stroke-width="1.5"/>

        <g stroke="#22d3ee" stroke-width="2" fill="rgba(13,17,23,0.5)">
            <path d="M 200,300 L 250,300 A 50 50 0 0 1 300 250 L 300,230" />
            <path d="M 800,300 L 850,300 A 50 50 0 0 0 900 250 L 900,230" />
        </g>

        <path d="M 80,270 C 400,260, 600,260, 1020,270" stroke="#0ea5e9" stroke-width="1.5" fill="none" opacity="0.7"/>
    </g>

    <g opacity="0.2" stroke="#c9d1d9" stroke-width="1" stroke-dasharray="5 5">
        <path d="M 0,500 L 1200,100" />
        <path d="M 0,550 L 1200,250" />
    </g>
</svg>